# xmcd
# 
# Track frame offsets:
#     182
#     22362
#     47032
#     76740
#     90312
#     115805
#     139567
#     166610
#     195995
# 
# Disc length: 3109
# 
# Revision: 10
# Processed by: cddbd v1.5.2PL0 Copyright (c) Steve Scherf et al.
# Submitted via: fre:ac v1.1beta1pre5
# 
DISCID=610c2309
DTITLE=Chris Spheeris, Paul Voudouris - Europa
DYEAR=1996
DGENRE=Ambient
TTITLE0=Orlando
TTITLE1=Seveness
TTITLE2=Laguna
TTITLE3=Pavane
TTITLE4=Bellaire
TTITLE5=Aqualuna
TTITLE6=Lanotte
TTITLE7=Taiku
TTITLE8=Maya
EXTD=YEAR: 1996
EXTT0=
EXTT1=
EXTT2=
EXTT3=
EXTT4=
EXTT5=
EXTT6=
EXTT7=
EXTT8=
PLAYORDER=
